#N canvas 991 209 483 221 10;
#X declare -lib mrpeach -lib udpsend;
#X obj 333 -12 import mrpeach udpsend;
#X floatatom 264 41 3 0 0 0 - - -;
#X floatatom 291 41 3 0 0 0 - - -;
#X floatatom 318 41 3 0 0 0 - - -;
#X floatatom 345 41 3 0 0 0 - - -;
#X floatatom 373 41 5 0 0 0 - - -;
#X obj 264 15 unpack 0 0 0 0 0;
#X obj 171 -11 udpreceive 22222;
#X obj 8 49 tgl 15 0 empty empty empty 17 7 0 10 -204786 -1 -1 0 1
;
#X obj 8 22 udpsend;
#X msg 8 -11 connect 192.168.0.20 7770;
#X obj 171 78 route /dmx/universe/1;
#X floatatom 171 139 5 0 0 0 - - -;
#X obj 120 111 zl len;
#X floatatom 120 139 5 0 0 0 - - -;
#X obj 300 138 table DmxUniverse 512;
#X obj 171 25 unpackOSC;
#X obj 171 109 zl nth 10;
#X connect 6 0 1 0;
#X connect 6 1 2 0;
#X connect 6 2 3 0;
#X connect 6 3 4 0;
#X connect 6 4 5 0;
#X connect 7 0 16 0;
#X connect 7 1 6 0;
#X connect 9 0 8 0;
#X connect 10 0 9 0;
#X connect 11 0 13 0;
#X connect 11 0 17 0;
#X connect 13 0 14 0;
#X connect 16 0 11 0;
#X connect 17 0 12 0;
