#N canvas 279 237 483 221 10;
#X floatatom 312 46 3 0 0 0 - - -;
#X floatatom 339 46 3 0 0 0 - - -;
#X floatatom 366 46 3 0 0 0 - - -;
#X floatatom 393 46 3 0 0 0 - - -;
#X floatatom 421 46 5 0 0 0 - - -;
#X obj 312 20 unpack 0 0 0 0 0;
#X obj 171 85 route /dmx/universe/1;
#X floatatom 171 146 5 0 0 0 - - -;
#X obj 120 118 zl len;
#X floatatom 120 146 5 0 0 0 - - -;
#X obj 300 145 table DmxUniverse 512;
#X obj 171 32 unpackOSC;
#X obj 171 116 zl nth 10;
#X obj 171 -4 mrpeach/udpreceive 22222;
#X obj 8 56 tgl 15 0 empty empty empty 17 7 0 10 -204786 -1 -1 1 1
;
#X obj 8 29 mrpeach/udpsend;
#X msg 8 -4 connect 127.0.0.1 7770;
#X connect 5 0 0 0;
#X connect 5 1 1 0;
#X connect 5 2 2 0;
#X connect 5 3 3 0;
#X connect 5 4 4 0;
#X connect 6 0 8 0;
#X connect 6 0 12 0;
#X connect 8 0 9 0;
#X connect 11 0 6 0;
#X connect 12 0 7 0;
#X connect 13 0 11 0;
#X connect 13 1 5 0;
#X connect 15 0 14 0;
#X connect 16 0 15 0;
